<svg width="35" height="36" viewBox="0 0 35 36" fill="none" xmlns="http://www.w3.org/2000/svg">
<path d="M9.52382 3.93274L11.5651 3.31744C13.4872 2.73807 15.5408 3.67438 16.364 5.50539L17.6347 8.33202C18.3363 9.89271 17.9665 11.7269 16.7151 12.8939L14.4954 14.9637C14.468 14.9893 14.4455 15.0197 14.429 15.0534C14.1968 15.528 14.5486 16.7959 15.6548 18.7118C16.9016 20.8713 17.8652 21.7258 18.3103 21.5931L21.2241 20.7023C22.86 20.2021 24.6329 20.7986 25.6338 22.1858L27.4385 24.6869C28.6101 26.3106 28.3994 28.5507 26.9456 29.9275L25.3935 31.3974C24.2972 32.4357 22.7621 32.8715 21.2837 32.5641C16.9584 31.6649 13.0831 28.1818 9.62544 22.1928C6.16433 16.198 5.08674 11.0961 6.47688 6.8984C6.94903 5.47268 8.08585 4.36618 9.52382 3.93274ZM10.0562 5.69892C9.19341 5.95898 8.51132 6.62289 8.22803 7.47832C7.03022 11.0953 8.00047 15.689 11.223 21.2705C14.4424 26.8467 17.932 29.9832 21.6592 30.7581C22.5462 30.9425 23.4673 30.681 24.1251 30.058L25.6772 28.5882C26.46 27.8468 26.5734 26.6406 25.9426 25.7663L24.1379 23.2652C23.5989 22.5182 22.6443 22.197 21.7635 22.4664L18.8435 23.3591C17.2273 23.8408 15.7083 22.4939 14.0573 19.6341C12.6595 17.2132 12.1743 15.4645 12.772 14.2428C12.8875 14.0067 13.0452 13.7938 13.2374 13.6146L15.457 11.5448C16.1309 10.9164 16.33 9.92875 15.9522 9.08838L14.6815 6.26175C14.2383 5.27582 13.1325 4.77165 12.0975 5.08362L10.0562 5.69892Z" fill="#FF6108"/>
</svg>
