<svg width="29" height="30" viewBox="0 0 29 30" fill="none" xmlns="http://www.w3.org/2000/svg">
<path d="M14.8385 4.41004C14.4187 4.05321 13.8021 4.05321 13.3823 4.41004L4.61364 11.8634C4.36235 12.077 4.21752 12.3901 4.21752 12.7199V24.3751C4.21752 24.6234 4.41885 24.8248 4.6672 24.8248H9.16395C9.4123 24.8248 9.61363 24.6234 9.61363 24.3751V18.0796C9.61363 16.8379 10.6203 15.8313 11.862 15.8313H15.9091C17.1508 15.8313 18.1575 16.8379 18.1575 18.0796V24.3751C18.1575 24.6234 18.3588 24.8248 18.6071 24.8248H23.5536C23.8019 24.8248 24.0032 24.6234 24.0032 24.3751V12.7199C24.0032 12.3901 23.8584 12.077 23.6071 11.8634L14.8385 4.41004ZM12.2174 3.03954C13.3089 2.11178 14.9119 2.11178 16.0034 3.03954L24.7721 10.4929C25.4254 11.0482 25.8019 11.8625 25.8019 12.7199V24.3751C25.8019 25.6168 24.7953 26.6235 23.5536 26.6235H18.6071C17.3654 26.6235 16.3588 25.6168 16.3588 24.3751V18.0796C16.3588 17.8313 16.1574 17.63 15.9091 17.63H11.862C11.6137 17.63 11.4123 17.8313 11.4123 18.0796V24.3751C11.4123 25.6168 10.4057 26.6235 9.16395 26.6235H4.6672C3.42546 26.6235 2.41882 25.6168 2.41882 24.3751V12.7199C2.41882 11.8625 2.79536 11.0482 3.44871 10.4929L12.2174 3.03954Z" fill="#F3F3F3"/>
</svg>
