<svg width="35" height="36" viewBox="0 0 35 36" fill="none" xmlns="http://www.w3.org/2000/svg">
<path d="M18.2298 10.2376C18.2298 10.9168 17.6792 11.4674 17 11.4674C16.3208 11.4674 15.7702 10.9168 15.7702 10.2376C15.7702 9.55839 16.3208 9.0078 17 9.0078C17.6792 9.0078 18.2298 9.55839 18.2298 10.2376ZM16.0777 14.8493L16.0777 24.0726C16.0777 24.582 16.4906 24.995 17 24.995C17.5094 24.995 17.9223 24.582 17.9223 24.0726L17.9223 14.8493C17.9223 14.3399 17.5094 13.9269 17 13.9269C16.4906 13.9269 16.0777 14.3399 16.0777 14.8493ZM2.24261 17.6163C2.24261 9.46599 8.84972 2.85889 17 2.85889C25.1503 2.85889 31.7574 9.46599 31.7574 17.6163C31.7574 25.7666 25.1503 32.3737 17 32.3737C8.84972 32.3737 2.24261 25.7666 2.24261 17.6163ZM17 4.70356C9.8685 4.70356 4.08728 10.4848 4.08728 17.6163C4.08728 24.7478 9.8685 30.529 17 30.529C24.1315 30.529 29.9127 24.7478 29.9127 17.6163C29.9127 10.4848 24.1315 4.70356 17 4.70356Z" fill="#FF6108"/>
</svg>
