<svg width="40" height="40" viewBox="0 0 40 40" fill="none" xmlns="http://www.w3.org/2000/svg">
<path d="M31.25 6.66675C34.2416 6.66675 36.6667 9.09187 36.6667 12.0834V31.2501C36.6667 34.2416 34.2416 36.6667 31.25 36.6667H12.0834C9.09181 36.6667 6.66669 34.2416 6.66669 31.2501V20.8365C7.45711 21.1661 8.29481 21.4047 9.16684 21.5394L9.16669 31.2501C9.16669 31.5974 9.2274 31.9306 9.33879 32.2395L19.043 22.7384C20.4315 21.3789 22.6125 21.3143 24.0763 22.5444L24.2903 22.7386L33.994 32.2412C34.1058 31.9318 34.1667 31.598 34.1667 31.2501V12.0834C34.1667 10.4726 32.8608 9.16675 31.25 9.16675L21.5393 9.1669C21.4047 8.29487 21.166 7.45717 20.8365 6.66675H31.25ZM20.9313 24.4067L20.792 24.5247L11.1141 34.0018C11.4174 34.1086 11.7436 34.1667 12.0834 34.1667H31.25C31.5892 34.1667 31.9148 34.1089 32.2176 34.0024L22.5411 24.5248C22.0994 24.0922 21.4169 24.0528 20.9313 24.4067ZM27.0869 12.5001C29.1599 12.5001 30.8404 14.1806 30.8404 16.2536C30.8404 18.3266 29.1599 20.0071 27.0869 20.0071C25.0139 20.0071 23.3334 18.3266 23.3334 16.2536C23.3334 14.1806 25.0139 12.5001 27.0869 12.5001ZM10.8334 1.66675C15.896 1.66675 20 5.7708 20 10.8334C20 15.896 15.896 20.0001 10.8334 20.0001C5.77074 20.0001 1.66669 15.896 1.66669 10.8334C1.66669 5.7708 5.77074 1.66675 10.8334 1.66675ZM27.0869 15.0001C26.3946 15.0001 25.8334 15.5613 25.8334 16.2536C25.8334 16.9459 26.3946 17.5071 27.0869 17.5071C27.7792 17.5071 28.3404 16.9459 28.3404 16.2536C28.3404 15.5613 27.7792 15.0001 27.0869 15.0001ZM10.8334 4.99881L10.6836 5.01223C10.3434 5.07397 10.0752 5.34219 10.0134 5.68235L10 5.83214L9.99944 9.99881L5.82944 10.0001L5.67964 10.0135C5.33949 10.0752 5.07127 10.3435 5.00953 10.6836L4.9961 10.8334L5.00953 10.9832C5.07127 11.3234 5.33949 11.5916 5.67964 11.6533L5.82944 11.6667L10.0011 11.6655L10.0019 15.8392L10.0153 15.989C10.077 16.3292 10.3453 16.5974 10.6854 16.6591L10.8352 16.6726L10.985 16.6591C11.3251 16.5974 11.5934 16.3292 11.6551 15.989L11.6685 15.8392L11.6678 11.6655L15.841 11.6667L15.9908 11.6533C16.3309 11.5916 16.5991 11.3234 16.6609 10.9832L16.6743 10.8334L16.6609 10.6836C16.5991 10.3435 16.3309 10.0752 15.9908 10.0135L15.841 10.0001L11.6661 9.99881L11.6667 5.83214L11.6533 5.68235C11.5915 5.34219 11.3233 5.07397 10.9831 5.01223L10.8334 4.99881Z" fill="#212121"/>
</svg>
