<svg width="35" height="35" viewBox="0 0 35 35" fill="none" xmlns="http://www.w3.org/2000/svg">
<path d="M11.9815 16.6178C12.7756 16.6178 13.4193 17.2616 13.4193 18.0557C13.4193 18.8498 12.7756 19.4935 11.9815 19.4935C11.1874 19.4935 10.5436 18.8498 10.5436 18.0557C10.5436 17.2616 11.1874 16.6178 11.9815 16.6178ZM17 6.36538V15.1831L17.0008 15.9076L27.6774 15.9062L25.2061 13.433C24.8242 13.051 24.7896 12.4531 25.1022 12.0319L25.2064 11.9113C25.5885 11.5293 26.1863 11.4947 26.6075 11.8073L26.7282 11.9115L31.0276 16.2124C31.4092 16.5941 31.4441 17.1913 31.1323 17.6125L31.0283 17.7332L26.7289 22.0424C26.3092 22.4631 25.6278 22.4638 25.2071 22.0441C24.8247 21.6625 24.7893 21.0647 25.1014 20.6431L25.2054 20.5223L27.663 18.0583L17.0008 18.0597L17 27.7371C17 28.4063 16.3957 28.9132 15.7368 28.7968L3.54143 26.6428C3.0273 26.552 2.65253 26.1052 2.65253 25.5832V8.36805C2.65253 7.84106 3.0342 7.39161 3.55422 7.30621L15.7496 5.30354C16.4047 5.19596 17 5.70148 17 6.36538ZM14.8479 7.63256L4.80465 9.28181V24.6805L14.8479 26.4544V7.63256ZM18.4347 26.6629L19.5325 26.6631L19.6787 26.6533C20.2045 26.5819 20.6095 26.1307 20.6086 25.5853L20.5983 19.4873H18.4347V26.6629ZM18.4376 14.4657L18.4347 12.6369V7.29198L19.504 7.29199C20.0481 7.29199 20.4981 7.6959 20.57 8.22043L20.5801 8.36627L20.5897 14.4657H18.4376Z" fill="#FF6108"/>
</svg>
