<svg width="30" height="30" viewBox="0 0 30 30" fill="none" xmlns="http://www.w3.org/2000/svg">
<path d="M17.6446 4.84837C17.2934 4.49715 16.7239 4.49715 16.3727 4.84837L4.52684 16.6942C4.17562 17.0455 4.17562 17.6149 4.52684 17.9661L5.80777 19.247C6.28409 18.9807 6.83325 18.8292 7.41534 18.8292C9.23656 18.8292 10.713 20.3056 10.713 22.1268C10.713 22.7089 10.5614 23.258 10.2951 23.7343L11.5762 25.0154C11.9274 25.3666 12.4968 25.3666 12.848 25.0154L24.6939 13.1696C25.0451 12.8183 25.0451 12.2489 24.6939 11.8977L23.4129 10.6167C22.9365 10.8831 22.3872 11.0348 21.8049 11.0348C19.9837 11.0348 18.5073 9.55839 18.5073 7.73717C18.5073 7.15492 18.659 6.60563 18.9254 6.12922L17.6446 4.84837ZM15.1008 3.5765C16.1545 2.52284 17.8628 2.52284 18.9164 3.5765L20.3212 4.98126C20.9337 5.59372 20.8239 6.45346 20.5151 6.97288C20.3824 7.19597 20.306 7.45627 20.306 7.73717C20.306 8.56499 20.9771 9.23608 21.8049 9.23608C22.0858 9.23608 22.3461 9.15967 22.5692 9.02703C23.0887 8.71819 23.9484 8.60845 24.5609 9.22091L25.9658 10.6258C27.0194 11.6795 27.0194 13.3878 25.9658 14.4414L14.1199 26.2873C13.0663 27.341 11.3579 27.341 10.3043 26.2873L8.8993 24.8823C8.28692 24.2699 8.39656 23.4103 8.7053 22.8909C8.83788 22.6678 8.91426 22.4076 8.91426 22.1268C8.91426 21.2989 8.24317 20.6279 7.41534 20.6279C7.13452 20.6279 6.87427 20.7042 6.65123 20.8368C6.13181 21.1456 5.27218 21.2552 4.6598 20.6428L3.25496 19.238C2.20131 18.1843 2.20131 16.476 3.25496 15.4224L15.1008 3.5765Z" fill="#F3F3F3"/>
</svg>
