<svg xmlns="http://www.w3.org/2000/svg" version="1.1" xmlns:xlink="http://www.w3.org/1999/xlink" xmlns:svgjs="http://svgjs.dev/svgjs" width="2000" height="1500" viewBox="0 0 2000 1500"><rect width="2000" height="1500" fill="#ffffff"></rect><g transform="matrix(0.75,0,0,0.75,249.090909090909,556.5814300838304)"><svg viewBox="0 0 396 102" data-background-color="#ffffff" preserveAspectRatio="xMidYMid meet" height="515" width="2000" xmlns="http://www.w3.org/2000/svg" xmlns:xlink="http://www.w3.org/1999/xlink"><g id="tight-bounds" transform="matrix(1,0,0,1,0.2400000000000091,0.07752525941566546)"><svg viewBox="0 0 395.52 101.84494948116868" height="101.84494948116868" width="395.52"><g><svg viewBox="0 0 518.969863466562 133.63283658728005" height="101.84494948116868" width="395.52"><g transform="matrix(1,0,0,1,123.44986346656196,18.468792900268085)"><svg viewBox="0 0 395.52000000000004 96.69525078674388" height="96.69525078674388" width="395.52000000000004"><g id="textblocktransform"><svg viewBox="0 0 395.52000000000004 96.69525078674388" height="96.69525078674388" width="395.52000000000004" id="textblock"><g><svg viewBox="0 0 395.52000000000004 53.29376992176181" height="53.29376992176181" width="395.52000000000004"><g transform="matrix(1,0,0,1,0,0)"><svg width="395.52000000000004" viewBox="1.22 -38.33 336.96999999999997 45.41" height="53.29376992176181" data-palette-color="#ea3c12"><path d="M4.49-1.66L3.71-11.33Q3.42-11.96 3.25-12.35 3.08-12.74 3.08-13.28L3.08-13.28Q3.08-13.72 3.2-14.09 3.32-14.45 3.32-14.89L3.32-14.89Q3.32-15.97 3.25-16.89 3.17-17.82 3.08-18.95L3.08-18.95Q3.03-19.09 2.73-19.19 2.44-19.29 2.1-19.46 1.76-19.63 1.49-19.97 1.22-20.31 1.22-20.95L1.22-20.95Q1.22-21.53 1.49-21.95 1.76-22.36 2.05-22.73 2.34-23.1 2.61-23.51 2.88-23.93 2.88-24.51L2.88-24.51Q2.88-24.76 2.83-25.42 2.78-26.07 2.76-26.81 2.73-27.54 2.71-28.2 2.69-28.86 2.69-29.1L2.69-29.1 2.69-29.2 2.69-29.3Q2.88-29.74 3-30.03 3.13-30.32 3.27-30.47 3.42-30.62 3.66-30.69 3.91-30.76 4.3-30.76L4.3-30.76Q5.32-30.76 5.81-30.37 6.3-29.98 6.49-29.47 6.69-28.96 6.74-28.52 6.79-28.08 6.98-28.03L6.98-28.03 10.5-31.1 10.69-31.1Q12.4-32.23 14.31-32.84 16.21-33.45 18.31-33.45L18.31-33.45Q18.95-33.45 19.85-33.3 20.75-33.15 21.56-32.79 22.36-32.42 22.92-31.84 23.49-31.25 23.49-30.37L23.49-30.37Q23.49-29.39 23.24-28.37 23-27.34 22.58-26.34 22.17-25.34 21.61-24.44 21.04-23.54 20.41-22.9L20.41-22.9Q20.17-22.36 17.29-20.17 14.4-17.97 8.69-13.62L8.69-13.62 32.13-12.16Q32.62-12.11 33.47-12.08 34.33-12.06 35.13-11.91 35.94-11.77 36.52-11.35 37.11-10.94 37.11-10.11L37.11-10.11Q37.11-9.67 36.99-9.4 36.87-9.13 36.69-8.96 36.52-8.79 36.3-8.64 36.08-8.5 35.89-8.25L35.89-8.25 35.06-8.25 34.23-8.25Q33.25-8.35 32.2-8.5 31.15-8.64 29.76-8.84 28.37-9.03 26.51-9.23 24.66-9.42 22.07-9.57 19.48-9.72 16.04-9.81 12.6-9.91 8.06-9.91L8.06-9.91Q8.01-9.91 7.93-9.77 7.86-9.62 7.86-9.52L7.86-9.52Q7.86-7.67 8.18-5.88 8.5-4.1 8.5-2.34L8.5-2.34Q8.5-2 8.42-1.59 8.35-1.17 8.15-0.81 7.96-0.44 7.67-0.2 7.37 0.05 6.93 0.05L6.93 0.05Q6.64 0.05 6.25-0.07 5.86-0.2 5.49-0.44 5.13-0.68 4.83-0.98 4.54-1.27 4.49-1.66L4.49-1.66ZM6.98-22.9L6.98-22.12Q6.98-20.9 7.03-19.82 7.08-18.75 7.18-17.48L7.18-17.48 7.32-17.48Q7.37-17.48 7.57-17.58 7.76-17.68 8.54-18.19 9.33-18.7 10.94-19.8 12.55-20.9 15.48-22.9L15.48-22.9Q16.06-23.24 16.75-24.07 17.43-24.9 18.02-25.88 18.6-26.86 18.99-27.81 19.38-28.76 19.38-29.39L19.38-29.39Q19.38-29.88 18.92-29.88 18.46-29.88 18.12-29.88L18.12-29.88Q17.38-29.88 16.46-29.64 15.53-29.39 14.23-28.66 12.94-27.93 11.16-26.56 9.38-25.2 6.98-22.9L6.98-22.9ZM59.03-13.87L59.03-13.87Q58.93-12.99 58.81-12.5 58.69-12.01 58.4-11.62 58.1-11.23 57.57-10.82 57.03-10.4 56.1-9.64 55.17-8.89 53.81-7.67 52.44-6.45 50.49-4.49L50.49-4.49Q49.7-3.76 48.87-2.98 48.04-2.2 47.14-1.59 46.24-0.98 45.26-0.59 44.28-0.2 43.21-0.2L43.21-0.2Q41.11-0.2 40.13-1.61 39.16-3.03 39.16-4.88L39.16-4.88Q39.16-6.1 39.23-6.93 39.3-7.76 39.6-9.08L39.6-9.08Q39.06-9.57 38.67-9.94 38.28-10.3 38.28-10.94L38.28-10.94Q38.28-11.52 38.55-11.72 38.82-11.91 39.18-11.99 39.55-12.06 39.89-12.16 40.23-12.26 40.38-12.55L40.38-12.55Q40.48-12.84 40.74-13.62 41.01-14.4 41.31-15.26 41.6-16.11 41.87-16.87 42.14-17.63 42.23-17.92L42.23-17.92Q42.58-18.75 42.99-19.6 43.41-20.46 43.97-21.14 44.53-21.83 45.29-22.27 46.04-22.71 47.07-22.71L47.07-22.71Q47.65-22.71 48.51-22.17 49.36-21.63 50.14-20.87 50.93-20.12 51.46-19.29 52-18.46 52-17.87L52-17.87Q52-17.14 51.66-16.53 51.32-15.92 50.8-15.41 50.29-14.89 49.7-14.45 49.12-14.01 48.63-13.62L48.63-13.62Q48.58-13.62 48.44-13.53 48.29-13.43 48.19-13.38L48.19-13.38Q48.14-13.33 47.97-13.16 47.8-12.99 47.6-12.79 47.41-12.6 47.24-12.4 47.07-12.21 47.02-12.16L47.02-12.16Q46.87-12.01 46.46-11.69 46.04-11.38 45.55-11.01 45.07-10.64 44.65-10.33 44.24-10.01 44.09-9.91L44.09-9.91 43.89-9.52Q43.8-9.33 43.72-8.67 43.65-8.01 43.55-7.18 43.45-6.35 43.38-5.49 43.31-4.64 43.31-4.1L43.31-4.1Q43.31-4.05 43.36-4L43.36-4Q43.45-3.91 43.5-3.91L43.5-3.91Q43.89-3.91 44.24-4.25 44.58-4.59 44.97-4.74L44.97-4.74 52.78-11.96 54.78-15.04Q55.03-15.38 55.73-15.8 56.44-16.21 57.18-16.24 57.91-16.26 58.47-15.77 59.03-15.28 59.03-13.87ZM45.07-15.58L48.29-17.68Q48.53-17.87 48.48-18.26 48.44-18.65 48.22-18.95 48-19.24 47.65-19.31 47.31-19.38 47.02-18.95L47.02-18.95Q46.87-18.75 46.51-18.16 46.14-17.58 45.77-16.97 45.41-16.36 45.16-15.92 44.92-15.48 45.07-15.58L45.07-15.58ZM67.72-1.86L67.72-1.86Q67.72-2.1 67.74-2.29 67.77-2.49 67.96-2.69L67.96-2.69Q68.55-3.42 69.28-4.22 70.01-5.03 70.7-5.83 71.38-6.64 71.97-7.52 72.55-8.4 72.94-9.28L72.94-9.28 72.94-9.57 66.55-8.25 65.82-8.25Q65.13-8.25 64.13-8.35 63.13-8.45 62.18-8.76 61.23-9.08 60.57-9.67 59.91-10.25 59.91-11.23L59.91-11.23Q59.96-12.35 61.08-13.72 62.2-15.09 63.72-16.41 65.23-17.72 66.77-18.85 68.31-19.97 69.23-20.61L69.23-20.61Q70.26-21.19 71.67-21.56 73.09-21.92 74.26-21.92L74.26-21.92Q75.24-21.92 75.97-21.56 76.7-21.19 76.7-20.12L76.7-20.12Q76.7-19.68 76.63-19.29 76.56-18.9 76.02-18.75L76.02-18.75Q74.46-18.9 73.09-18.53 71.72-18.16 70.5-17.43 69.28-16.7 68.21-15.7 67.13-14.7 66.11-13.62L66.11-13.62Q65.82-13.28 65.38-12.67 64.94-12.06 64.94-11.96L64.94-11.96 64.94-11.91Q66.21-11.91 67.45-12.16 68.7-12.4 69.94-12.67 71.19-12.94 72.43-13.18 73.68-13.43 75-13.43L75-13.43Q75.48-13.43 76.07-13.35 76.66-13.28 77.17-13.04 77.68-12.79 78-12.38 78.32-11.96 78.32-11.33L78.32-11.33Q78.32-10.4 77.85-9.55 77.39-8.69 76.48-7.5 75.58-6.3 74.19-4.59 72.8-2.88 70.89-0.2L70.89-0.2Q70.8-0.05 70.43 0 70.06 0.05 69.82 0.05L69.82 0.05Q69.14 0.05 68.43-0.54 67.72-1.12 67.72-1.86ZM85.34-14.26L85.15-14.26Q84.47-14.26 83.93-13.92 83.39-13.57 82.66-13.57L82.66-13.57Q82.56-13.57 82.15-13.6 81.73-13.62 81.63-13.62L81.63-13.62Q81.44-13.87 81.19-14.01 80.95-14.16 80.71-14.33 80.46-14.5 80.29-14.75 80.12-14.99 80.12-15.43L80.12-15.43Q80.12-16.16 80.71-16.63 81.29-17.09 82.07-17.43 82.85-17.77 83.66-18.07 84.47-18.36 84.95-18.75L84.95-18.75 84.95-20.9Q84.95-24.51 84.61-28.15 84.27-31.79 84.27-35.35L84.27-35.35Q84.27-36.33 84.76-36.62 85.25-36.91 86.08-36.91L86.08-36.91Q87.05-36.91 87.52-36.35 87.98-35.79 88.18-34.99 88.37-34.18 88.37-33.28 88.37-32.37 88.42-31.74L88.42-31.74Q88.42-31.1 88.52-29.49 88.62-27.88 88.71-26.07 88.81-24.27 88.91-22.66 89.01-21.04 89.06-20.41L89.06-20.41Q89.25-20.46 89.81-20.68 90.37-20.9 91.01-21.12 91.64-21.34 92.2-21.53 92.77-21.73 93.01-21.83L93.01-21.83Q94.28-22.36 95.65-23.02 97.01-23.68 98.43-23.68L98.43-23.68Q99.41-23.68 99.92-23.02 100.43-22.36 100.43-21.48L100.43-21.48Q100.43-20.85 99.94-20.56 99.46-20.26 98.92-20.02L98.92-20.02 90.03-16.7Q89.89-16.6 89.74-16.53 89.59-16.46 89.45-16.31L89.45-16.31 89.45-14.75Q89.45-13.04 89.52-11.21 89.59-9.38 89.84-7.67L89.84-7.67Q90.08-6.2 90.37-4.79 90.67-3.37 90.67-1.9L90.67-1.9Q90.67-1.46 90.37-0.73 90.08 0 89.45 0L89.45 0Q88.13 0 87.3-0.78 86.47-1.56 86.37-2.88L86.37-2.88Q86.13-5.42 85.86-8.45 85.59-11.47 85.34-14.26L85.34-14.26ZM113.56-13.38L113.37-13.62Q112.93-12.84 112.37-11.74 111.81-10.64 111.17-9.4 110.54-8.15 109.78-6.91 109.02-5.66 108.22-4.64 107.41-3.61 106.53-2.91 105.65-2.2 104.73-2.05L104.73-2.05Q104.34-2.05 103.85-2.12 103.36-2.2 102.87-2.37 102.38-2.54 102.07-2.86 101.75-3.17 101.75-3.71L101.75-3.71Q101.8-8.69 102.48-12.77 103.16-16.85 104.63-19.95 106.09-23.05 108.39-25.1 110.68-27.15 113.95-28.03L113.95-28.03Q114.05-28.03 114.32-28.05 114.59-28.08 114.69-28.08L114.69-28.08Q116.15-28.13 116.81-26.73 117.47-25.34 117.79-22.34 118.11-19.34 118.23-14.62 118.35-9.91 118.74-3.32L118.74-3.32Q118.89-2.78 118.91-2.39 118.94-2 118.94-1.46L118.94-1.46Q118.94-0.73 118.5-0.37 118.06 0 117.37 0L117.37 0Q115.96 0 115.37-0.78 114.78-1.56 114.59-2.88L114.59-2.88Q114.59-2.93 114.52-3.66 114.44-4.39 114.32-5.35 114.2-6.3 114.1-7.28 114-8.25 113.95-8.89L113.95-8.89 113.95-9.08Q113.86-9.57 113.83-10.3 113.81-11.04 113.71-11.72L113.71-11.72Q113.61-12.55 113.56-13.38L113.56-13.38ZM112.29-23.29L112.29-23.29Q110.98-22.31 109.71-20.65 108.44-18.99 107.9-17.43L107.9-17.43Q107.66-16.7 107.36-15.43 107.07-14.16 106.85-12.92 106.63-11.67 106.48-10.62 106.34-9.57 106.34-9.28L106.34-9.28Q106.39-9.28 106.46-9.38 106.53-9.47 106.58-9.52L106.58-9.52Q109.61-12.45 110.85-15.84 112.1-19.24 112.29-23.29ZM131.34-4.05L131.14-4.64Q130.8-3.91 130.46-3.05 130.11-2.2 129.68-1.51 129.24-0.83 128.6-0.37 127.97 0.1 126.99 0.1L126.99 0.1Q125.28 0.1 124.16-0.76 123.03-1.61 122.33-2.91 121.62-4.2 121.33-5.71 121.03-7.23 121.03-8.54L121.03-8.54 121.42-20.36Q121.37-20.7 121.59-21.07 121.81-21.44 122.18-21.75 122.55-22.07 123.01-22.27 123.47-22.46 123.86-22.46L123.86-22.46Q124.99-22.46 125.77-21.75 126.55-21.04 126.55-19.92L126.55-19.92 126.55-19.43Q126.01-18.55 125.62-17.14 125.23-15.72 125.01-14.09 124.79-12.45 124.74-10.74 124.69-9.03 124.87-7.62 125.04-6.2 125.43-5.2 125.82-4.2 126.45-4L126.45-4Q126.7-4 127.21-4.25 127.72-4.49 128.31-5.18 128.89-5.86 129.53-7.1 130.16-8.35 130.65-10.4 131.14-12.45 131.38-15.38 131.63-18.31 131.53-22.41L131.53-22.41Q131.73-22.95 132.09-23 132.46-23.05 132.85-23.05L132.85-23.05Q133.29-23.05 133.58-23.02 133.87-23 134.22-22.66L134.22-22.66Q134.46-22.41 134.75-21.92 135.05-21.44 135.05-21.39L135.05-21.39 135.88 0.24Q135.88 0.98 135.49 1.46 135.09 1.95 134.36 1.95L134.36 1.95Q134.12 1.95 133.78 1.9 133.43 1.86 133.09 1.71 132.75 1.56 132.48 1.34 132.21 1.12 132.17 0.83L132.17 0.83 131.34-4.05ZM140.76-2.1L140.76-2.1Q140.66-3.86 140.44-6.81 140.22-9.77 139.95-12.94 139.68-16.11 139.39-18.95 139.1-21.78 138.9-23.34L138.9-23.34Q138.9-23.97 139.49-24.17 140.07-24.37 140.61-24.37L140.61-24.37Q141.29-24.37 142.05-23.97 142.81-23.58 143-22.9L143-22.9Q143-22.71 143.05-22.19 143.1-21.68 143.12-21.14 143.15-20.61 143.2-20.09 143.25-19.58 143.25-19.38L143.25-19.38Q143.25-19.09 143.25-18.95 143.25-18.8 143.25-18.68 143.25-18.55 143.3-18.41 143.34-18.26 143.44-17.92L143.44-17.92Q143.54-18.02 143.66-18.16 143.78-18.31 143.83-18.36L143.83-18.36Q144.61-19.48 145.35-20.34 146.08-21.19 146.86-21.95 147.64-22.71 148.59-23.56 149.55-24.41 150.82-25.54L150.82-25.54Q151.11-25.78 151.25-25.9 151.4-26.03 151.52-26.1 151.65-26.17 151.79-26.2 151.94-26.22 152.18-26.22L152.18-26.22Q153.01-26.22 153.87-25.66 154.72-25.1 154.72-24.12L154.72-24.12Q154.72-23.78 154.48-23.41 154.23-23.05 153.89-22.73 153.55-22.41 153.18-22.17 152.82-21.92 152.52-21.83L152.52-21.83Q151.25-20.7 149.84-19.26 148.42-17.82 147.2-16.16 145.98-14.5 145.2-12.7 144.42-10.89 144.42-9.08L144.42-9.08Q144.42-7.42 144.66-5.81 144.91-4.2 144.91-2.54L144.91-2.54 144.91-0.83Q144.52-0.44 144.22-0.2 143.93 0.05 143.39 0.05L143.39 0.05Q142.56 0.05 141.78-0.66 141-1.37 140.76-2.1ZM167.56-13.38L167.37-13.62Q166.93-12.84 166.36-11.74 165.8-10.64 165.17-9.4 164.53-8.15 163.78-6.91 163.02-5.66 162.21-4.64 161.41-3.61 160.53-2.91 159.65-2.2 158.72-2.05L158.72-2.05Q158.33-2.05 157.84-2.12 157.36-2.2 156.87-2.37 156.38-2.54 156.06-2.86 155.74-3.17 155.74-3.71L155.74-3.71Q155.79-8.69 156.48-12.77 157.16-16.85 158.63-19.95 160.09-23.05 162.38-25.1 164.68-27.15 167.95-28.03L167.95-28.03Q168.05-28.03 168.32-28.05 168.59-28.08 168.68-28.08L168.68-28.08Q170.15-28.13 170.81-26.73 171.47-25.34 171.78-22.34 172.1-19.34 172.22-14.62 172.35-9.91 172.74-3.32L172.74-3.32Q172.88-2.78 172.91-2.39 172.93-2 172.93-1.46L172.93-1.46Q172.93-0.73 172.49-0.37 172.05 0 171.37 0L171.37 0Q169.95 0 169.37-0.78 168.78-1.56 168.59-2.88L168.59-2.88Q168.59-2.93 168.51-3.66 168.44-4.39 168.32-5.35 168.2-6.3 168.1-7.28 168-8.25 167.95-8.89L167.95-8.89 167.95-9.08Q167.85-9.57 167.83-10.3 167.8-11.04 167.71-11.72L167.71-11.72Q167.61-12.55 167.56-13.38L167.56-13.38ZM166.29-23.29L166.29-23.29Q164.97-22.31 163.7-20.65 162.43-18.99 161.9-17.43L161.9-17.43Q161.65-16.7 161.36-15.43 161.07-14.16 160.85-12.92 160.63-11.67 160.48-10.62 160.33-9.57 160.33-9.28L160.33-9.28Q160.38-9.28 160.46-9.38 160.53-9.47 160.58-9.52L160.58-9.52Q163.61-12.45 164.85-15.84 166.1-19.24 166.29-23.29ZM189.38-1.66L189.38-1.66Q188.7-2.64 188.24-4.37 187.77-6.1 187.36-8.03 186.94-9.96 186.6-11.79 186.26-13.62 185.89-14.72 185.53-15.82 185.09-15.97 184.65-16.11 184.06-14.65L184.06-14.65 179.81-1.56Q179.57-0.88 179.23-0.61 178.89-0.34 178.11-0.34L178.11-0.34Q177.71-0.34 177.27-0.46 176.84-0.59 176.44-0.83 176.05-1.07 175.79-1.42 175.52-1.76 175.47-2.2L175.47-2.2Q175.61-2.78 175.74-4.35 175.86-5.91 175.91-7.96 175.96-10.01 175.98-12.28 176.01-14.55 175.98-16.53 175.96-18.51 175.91-19.95 175.86-21.39 175.81-21.83L175.81-21.83Q175.81-22.31 175.83-22.83 175.86-23.34 175.98-23.78 176.1-24.22 176.42-24.49 176.74-24.76 177.42-24.76L177.42-24.76Q178.35-24.76 179.15-23.97 179.96-23.19 179.96-22.31L179.96-22.31Q179.96-21.04 179.84-19.8 179.72-18.55 179.72-17.29L179.72-17.29Q179.72-16.5 179.72-15.97 179.72-15.43 179.91-14.65L179.91-14.65Q180.06-15.04 180.4-16.02 180.74-16.99 181.16-18.07 181.57-19.14 181.91-20.09 182.26-21.04 182.4-21.44L182.4-21.44Q182.74-22.41 183.43-23.32 184.11-24.22 185.23-24.32L185.23-24.32Q185.97-24.37 186.58-23.93 187.19-23.49 187.63-22.78 188.07-22.07 188.36-21.31 188.65-20.56 188.8-20.02L188.8-20.02 191.44-7.86 193.49-2.29Q193.53-2.25 193.53-2.03 193.53-1.81 193.53-1.71L193.53-1.71Q193.53-1.12 193.27-0.56 193 0 192.31 0L192.31 0Q191.48 0 190.61-0.46 189.73-0.93 189.38-1.66ZM200.56-14.26L200.37-14.26Q199.68-14.26 199.15-13.92 198.61-13.57 197.88-13.57L197.88-13.57Q197.78-13.57 197.37-13.6 196.95-13.62 196.85-13.62L196.85-13.62Q196.66-13.87 196.41-14.01 196.17-14.16 195.92-14.33 195.68-14.5 195.51-14.75 195.34-14.99 195.34-15.43L195.34-15.43Q195.34-16.16 195.92-16.63 196.51-17.09 197.29-17.43 198.07-17.77 198.88-18.07 199.68-18.36 200.17-18.75L200.17-18.75 200.17-20.9Q200.17-24.51 199.83-28.15 199.49-31.79 199.49-35.35L199.49-35.35Q199.49-36.33 199.98-36.62 200.47-36.91 201.3-36.91L201.3-36.91Q202.27-36.91 202.74-36.35 203.2-35.79 203.4-34.99 203.59-34.18 203.59-33.28 203.59-32.37 203.64-31.74L203.64-31.74Q203.64-31.1 203.74-29.49 203.83-27.88 203.93-26.07 204.03-24.27 204.13-22.66 204.23-21.04 204.27-20.41L204.27-20.41Q204.47-20.46 205.03-20.68 205.59-20.9 206.23-21.12 206.86-21.34 207.42-21.53 207.99-21.73 208.23-21.83L208.23-21.83Q209.5-22.36 210.87-23.02 212.23-23.68 213.65-23.68L213.65-23.68Q214.63-23.68 215.14-23.02 215.65-22.36 215.65-21.48L215.65-21.48Q215.65-20.85 215.16-20.56 214.67-20.26 214.14-20.02L214.14-20.02 205.25-16.7Q205.1-16.6 204.96-16.53 204.81-16.46 204.67-16.31L204.67-16.31 204.67-14.75Q204.67-13.04 204.74-11.21 204.81-9.38 205.06-7.67L205.06-7.67Q205.3-6.2 205.59-4.79 205.89-3.37 205.89-1.9L205.89-1.9Q205.89-1.46 205.59-0.73 205.3 0 204.67 0L204.67 0Q203.35 0 202.52-0.78 201.69-1.56 201.59-2.88L201.59-2.88Q201.34-5.42 201.08-8.45 200.81-11.47 200.56-14.26L200.56-14.26ZM239.33-10.55L239.33-10.55Q238.25-10.35 237.64-10.72 237.03-11.08 236.79-11.65 236.54-12.21 236.57-12.77 236.59-13.33 236.79-13.48L236.79-13.48Q236.94-13.53 237.45-13.87 237.96-14.21 238.06-14.31L238.06-14.31Q238.11-14.31 238.18-14.38 238.25-14.45 238.3-14.5L238.3-14.5 238.3-15.38Q238.3-18.12 237.99-20.78 237.67-23.44 237.67-26.12L237.67-26.12Q237.67-27.88 237.74-29.79 237.81-31.69 238.38-33.3 238.94-34.91 240.16-35.94 241.38-36.96 243.67-36.96L243.67-36.96Q244.06-36.96 244.6-36.96 245.14-36.96 245.6-36.84 246.07-36.72 246.41-36.4 246.75-36.08 246.75-35.5L246.75-35.5Q246.75-34.62 246.33-34.35 245.92-34.08 245.29-34.01 244.65-33.94 243.97-33.81 243.28-33.69 242.79-33.06L242.79-33.06Q242.7-32.96 242.55-32.54 242.4-32.13 242.4-31.98L242.4-31.98Q242.31-31.64 242.21-31.05 242.11-30.47 242.04-29.88 241.96-29.3 241.89-28.83 241.82-28.37 241.82-28.32L241.82-28.32Q241.82-28.27 241.82-27.95 241.82-27.64 241.79-27.2 241.77-26.76 241.77-26.29 241.77-25.83 241.77-25.54L241.77-25.54Q241.77-24.51 241.77-23.63 241.77-22.75 241.82-21.9 241.87-21.04 241.96-20.17 242.06-19.29 242.21-18.21L242.21-18.21 242.6-18.21 249.19-22.12Q249.87-22.27 250.41-22.61 250.95-22.95 251.63-22.95L251.63-22.95Q252.32-22.95 253.05-22.61 253.78-22.27 253.78-21.53L253.78-21.53Q253.78-21 253.54-20.75 253.29-20.51 253.15-20.07L253.15-20.07Q252.95-20.02 252.41-19.78 251.88-19.53 251.68-19.43L251.68-19.43Q251.29-19.19 250.44-18.68 249.58-18.16 248.65-17.6 247.73-17.04 246.95-16.55 246.16-16.06 245.92-15.92L245.92-15.92Q245.58-15.67 245.09-15.33 244.6-14.99 244.14-14.62 243.67-14.26 243.33-13.99 242.99-13.72 242.99-13.72L242.99-13.72 242.99-13.23 244.26-9.08Q244.21-8.94 244.24-8.76 244.26-8.59 244.45-8.5L244.45-8.5 246.75-1.51Q246.99-0.63 246.38-0.05 245.77 0.54 244.99 0.54L244.99 0.54Q244.11 0.54 243.28 0.07 242.45-0.39 242.21-1.32L242.21-1.32 239.52-10.16 239.33-10.55ZM253.83-1.86L253.83-1.86Q253.34-6.74 253-10.21 252.66-13.67 252.41-16.02 252.17-18.36 252-19.75 251.83-21.14 251.73-21.85 251.63-22.56 251.58-22.8 251.53-23.05 251.53-23.1L251.53-23.1 251.53-23.29Q251.53-23.83 252-24.19 252.46-24.56 252.95-24.56L252.95-24.56Q253.68-24.56 254.54-24.32 255.39-24.07 255.68-23.29L255.68-23.29Q256.12-20.9 256.29-18.46 256.46-16.02 256.59-13.6 256.71-11.18 256.93-8.74 257.15-6.3 257.73-3.91L257.73-3.91Q257.73-3.81 257.81-3.52 257.88-3.22 257.95-2.88 258.03-2.54 258.08-2.25 258.12-1.95 258.12-1.86L258.12-1.86 258.12-1.76Q258.12-1.71 258.17-1.66L258.17-1.66Q258.17-1.07 257.64-0.49 257.1 0.1 256.51 0L256.51 0Q256.37-0.05 255.8-0.17 255.24-0.29 255.05-0.39L255.05-0.39Q254.9-0.44 254.66-0.61 254.41-0.78 254.19-0.98 253.97-1.17 253.83-1.42 253.68-1.66 253.83-1.86ZM251.09-37.45L251.09-37.45Q251.09-37.79 251.65-38.06 252.22-38.33 252.51-38.33L252.51-38.33Q253.24-38.33 254.14-37.92 255.05-37.5 255.05-36.67L255.05-36.67Q255.05-35.84 254.83-35.55 254.61-35.25 253.78-35.25L253.78-35.25Q252.9-35.25 252-35.84 251.09-36.43 251.09-37.45ZM273.89-1.66L273.89-1.66Q273.21-2.64 272.75-4.37 272.28-6.1 271.87-8.03 271.45-9.96 271.11-11.79 270.77-13.62 270.4-14.72 270.04-15.82 269.6-15.97 269.16-16.11 268.57-14.65L268.57-14.65 264.32-1.56Q264.08-0.88 263.74-0.61 263.4-0.34 262.61-0.34L262.61-0.34Q262.22-0.34 261.78-0.46 261.34-0.59 260.95-0.83 260.56-1.07 260.29-1.42 260.03-1.76 259.98-2.2L259.98-2.2Q260.12-2.78 260.25-4.35 260.37-5.91 260.42-7.96 260.47-10.01 260.49-12.28 260.51-14.55 260.49-16.53 260.47-18.51 260.42-19.95 260.37-21.39 260.32-21.83L260.32-21.83Q260.32-22.31 260.34-22.83 260.37-23.34 260.49-23.78 260.61-24.22 260.93-24.49 261.25-24.76 261.93-24.76L261.93-24.76Q262.86-24.76 263.66-23.97 264.47-23.19 264.47-22.31L264.47-22.31Q264.47-21.04 264.35-19.8 264.23-18.55 264.23-17.29L264.23-17.29Q264.23-16.5 264.23-15.97 264.23-15.43 264.42-14.65L264.42-14.65Q264.57-15.04 264.91-16.02 265.25-16.99 265.67-18.07 266.08-19.14 266.42-20.09 266.76-21.04 266.91-21.44L266.91-21.44Q267.25-22.41 267.94-23.32 268.62-24.22 269.74-24.32L269.74-24.32Q270.48-24.37 271.09-23.93 271.7-23.49 272.14-22.78 272.57-22.07 272.87-21.31 273.16-20.56 273.31-20.02L273.31-20.02 275.94-7.86 277.99-2.29Q278.04-2.25 278.04-2.03 278.04-1.81 278.04-1.71L278.04-1.71Q278.04-1.12 277.78-0.56 277.51 0 276.82 0L276.82 0Q275.99 0 275.11-0.46 274.24-0.93 273.89-1.66ZM292.45-7.71L292.45-7.71Q292.4-7.71 291.79-6.64 291.18-5.57 290.15-4.3 289.13-3.03 287.73-1.95 286.34-0.88 284.78-0.88L284.78-0.88Q282.63-0.88 281.19-2.2 279.75-3.52 279.75-5.81L279.75-5.81Q279.65-6.98 280.07-8.59 280.48-10.21 281.29-11.94 282.09-13.67 283.24-15.31 284.39-16.94 285.71-18.14 287.03-19.34 288.47-19.92 289.91-20.51 291.37-20.12L291.37-20.12 291.37-20.8Q291.37-22.07 291.3-23.41 291.22-24.76 291.15-26.49 291.08-28.22 291.01-30.49 290.93-32.76 290.93-35.94L290.93-35.94Q291.08-36.47 291.44-36.65 291.81-36.82 292.25-36.82L292.25-36.82Q293.37-36.82 294.03-36.08 294.69-35.35 294.84-34.28L294.84-34.28Q294.74-32.62 294.76-30.88 294.79-29.15 294.94-26.95 295.08-24.76 295.4-21.97 295.72-19.19 296.21-15.41 296.69-11.62 297.38-6.71 298.06-1.81 298.99 4.64L298.99 4.64 298.99 6.3Q298.99 6.59 298.77 6.74 298.55 6.88 298.23 6.96 297.91 7.03 297.6 7.06 297.28 7.08 297.13 7.08L297.13 7.08Q296.4 7.08 295.57 6.67 294.74 6.25 294.59 5.52L294.59 5.52 292.79-7.52Q292.79-7.67 292.67-7.69 292.54-7.71 292.45-7.71ZM283.85-6.64L283.85-6.64Q283.85-6.49 283.83-6.13 283.8-5.76 283.83-5.37 283.85-4.98 283.95-4.69 284.05-4.39 284.34-4.39L284.34-4.39Q285.56-4.35 286.85-5.32 288.15-6.3 289.22-7.74 290.3-9.18 291.01-10.84 291.71-12.5 291.79-13.82 291.86-15.14 291.15-15.84 290.44-16.55 288.73-16.16L288.73-16.16Q286.63-14.31 285.24-11.91 283.85-9.52 283.85-6.64ZM320.71-13.87L320.71-13.87Q320.62-12.99 320.49-12.5 320.37-12.01 320.08-11.62 319.79-11.23 319.25-10.82 318.71-10.4 317.78-9.64 316.86-8.89 315.49-7.67 314.12-6.45 312.17-4.49L312.17-4.49Q311.39-3.76 310.56-2.98 309.73-2.2 308.82-1.59 307.92-0.98 306.94-0.59 305.97-0.2 304.89-0.2L304.89-0.2Q302.79-0.2 301.82-1.61 300.84-3.03 300.84-4.88L300.84-4.88Q300.84-6.1 300.91-6.93 300.99-7.76 301.28-9.08L301.28-9.08Q300.74-9.57 300.35-9.94 299.96-10.3 299.96-10.94L299.96-10.94Q299.96-11.52 300.23-11.72 300.5-11.91 300.87-11.99 301.23-12.06 301.57-12.16 301.92-12.26 302.06-12.55L302.06-12.55Q302.16-12.84 302.43-13.62 302.7-14.4 302.99-15.26 303.28-16.11 303.55-16.87 303.82-17.63 303.92-17.92L303.92-17.92Q304.26-18.75 304.67-19.6 305.09-20.46 305.65-21.14 306.21-21.83 306.97-22.27 307.73-22.71 308.75-22.71L308.75-22.71Q309.34-22.71 310.19-22.17 311.05-21.63 311.83-20.87 312.61-20.12 313.15-19.29 313.68-18.46 313.68-17.87L313.68-17.87Q313.68-17.14 313.34-16.53 313-15.92 312.49-15.41 311.97-14.89 311.39-14.45 310.8-14.01 310.31-13.62L310.31-13.62Q310.27-13.62 310.12-13.53 309.97-13.43 309.87-13.38L309.87-13.38Q309.83-13.33 309.65-13.16 309.48-12.99 309.29-12.79 309.09-12.6 308.92-12.4 308.75-12.21 308.7-12.16L308.7-12.16Q308.56-12.01 308.14-11.69 307.73-11.38 307.24-11.01 306.75-10.64 306.33-10.33 305.92-10.01 305.77-9.91L305.77-9.91 305.58-9.52Q305.48-9.33 305.41-8.67 305.33-8.01 305.24-7.18 305.14-6.35 305.07-5.49 304.99-4.64 304.99-4.1L304.99-4.1Q304.99-4.05 305.04-4L305.04-4Q305.14-3.91 305.19-3.91L305.19-3.91Q305.58-3.91 305.92-4.25 306.26-4.59 306.65-4.74L306.65-4.74 314.46-11.96 316.47-15.04Q316.71-15.38 317.42-15.8 318.13-16.21 318.86-16.24 319.59-16.26 320.15-15.77 320.71-15.28 320.71-13.87ZM306.75-15.58L309.97-17.68Q310.22-17.87 310.17-18.26 310.12-18.65 309.9-18.95 309.68-19.24 309.34-19.31 309-19.38 308.7-18.95L308.7-18.95Q308.56-18.75 308.19-18.16 307.82-17.58 307.46-16.97 307.09-16.36 306.85-15.92 306.6-15.48 306.75-15.58L306.75-15.58ZM324.23-2.1L324.23-2.1Q324.13-3.86 323.91-6.81 323.69-9.77 323.42-12.94 323.15-16.11 322.86-18.95 322.57-21.78 322.37-23.34L322.37-23.34Q322.37-23.97 322.96-24.17 323.54-24.37 324.08-24.37L324.08-24.37Q324.76-24.37 325.52-23.97 326.28-23.58 326.47-22.9L326.47-22.9Q326.47-22.71 326.52-22.19 326.57-21.68 326.6-21.14 326.62-20.61 326.67-20.09 326.72-19.58 326.72-19.38L326.72-19.38Q326.72-19.09 326.72-18.95 326.72-18.8 326.72-18.68 326.72-18.55 326.77-18.41 326.82-18.26 326.91-17.92L326.91-17.92Q327.01-18.02 327.13-18.16 327.25-18.31 327.3-18.36L327.3-18.36Q328.09-19.48 328.82-20.34 329.55-21.19 330.33-21.95 331.11-22.71 332.06-23.56 333.02-24.41 334.29-25.54L334.29-25.54Q334.58-25.78 334.73-25.9 334.87-26.03 334.99-26.1 335.12-26.17 335.26-26.2 335.41-26.22 335.65-26.22L335.65-26.22Q336.48-26.22 337.34-25.66 338.19-25.1 338.19-24.12L338.19-24.12Q338.19-23.78 337.95-23.41 337.7-23.05 337.36-22.73 337.02-22.41 336.65-22.17 336.29-21.92 336-21.83L336-21.83Q334.73-20.7 333.31-19.26 331.89-17.82 330.67-16.16 329.45-14.5 328.67-12.7 327.89-10.89 327.89-9.08L327.89-9.08Q327.89-7.42 328.13-5.81 328.38-4.2 328.38-2.54L328.38-2.54 328.38-0.83Q327.99-0.44 327.69-0.2 327.4 0.05 326.86 0.05L326.86 0.05Q326.03 0.05 325.25-0.66 324.47-1.37 324.23-2.1Z" opacity="1" transform="matrix(1,0,0,1,0,0)" fill="#ea3c12" class="wordmark-text-0" data-fill-palette-color="primary" id="text-0"></path></svg></g></svg></g><g transform="matrix(1,0,0,1,0,65.87514994981164)"><svg viewBox="0 0 232.20979200000002 30.820100836932244" height="30.820100836932244" width="232.20979200000002"><g transform="matrix(1,0,0,1,0,0)"><svg width="232.20979200000002" viewBox="2.44 -34.16 262.27 34.81999999999999" height="30.820100836932244" data-palette-color="#ea3c12"><path d="M2.44-33.54L16.09-33.54 16.09-30.69 6.88-30.69Q6.74-27.81 6.68-24.9 6.62-22 6.59-19.31L6.59-19.31 15.41-19.31 15.41-16.46 6.59-16.46Q6.59-14.6 6.62-12.56 6.64-10.52 6.69-8.41 6.74-6.3 6.81-4.16 6.88-2.03 7.01 0L7.01 0 2.44 0Q2.59-2.08 2.67-4.26 2.76-6.45 2.81-8.61 2.86-10.77 2.88-12.84 2.91-14.92 2.91-16.8L2.91-16.8Q2.91-18.68 2.88-20.75 2.86-22.83 2.81-24.98 2.76-27.12 2.67-29.3 2.59-31.47 2.44-33.54L2.44-33.54ZM19.72-33.54L24.34-33.54Q24.19-31.47 24.11-29.3 24.02-27.12 23.97-24.98 23.92-22.83 23.9-20.75 23.87-18.68 23.87-16.8L23.87-16.8Q23.87-14.92 23.9-12.84 23.92-10.77 23.97-8.61 24.02-6.45 24.09-4.26 24.17-2.08 24.29 0L24.29 0 19.72 0Q19.87-2.08 19.96-4.26 20.04-6.45 20.09-8.61 20.14-10.77 20.16-12.84 20.19-14.92 20.19-16.8L20.19-16.8Q20.19-18.68 20.16-20.75 20.14-22.83 20.09-24.98 20.04-27.12 19.96-29.3 19.87-31.47 19.72-33.54L19.72-33.54ZM43.65-16.06L43.65-16.06Q43.6-19.87 43.49-22.72 43.38-25.56 43.02-27.43 42.67-29.3 41.99-30.22 41.3-31.15 40.11-31.15L40.11-31.15Q39.47-31.15 38.58-30.74 37.69-30.32 36.76-29.63 35.83-28.93 34.98-28.05 34.13-27.17 33.56-26.27L33.56-26.27Q33.42-21.44 33.42-16.48L33.42-16.48Q33.42-14.21 33.44-12.16 33.47-10.11 33.52-8.13 33.56-6.15 33.66-4.16 33.76-2.17 33.88 0L33.88 0 29.37 0Q29.49-2.17 29.57-4.16 29.66-6.15 29.72-8.13 29.78-10.11 29.8-12.16 29.83-14.21 29.83-16.48L29.83-16.48Q29.83-18.75 29.8-20.89 29.78-23.02 29.72-25.11 29.66-27.2 29.57-29.28 29.49-31.37 29.37-33.54L29.37-33.54 33.91-33.54 33.69-29.76Q34.42-30.64 35.32-31.43 36.23-32.23 37.2-32.84 38.18-33.45 39.2-33.8 40.23-34.16 41.23-34.16L41.23-34.16Q44.14-34.16 45.73-31.85 47.33-29.54 47.33-24.98L47.33-24.98Q47.33-23.85 47.32-22.57 47.31-21.29 47.29-20.06 47.26-18.82 47.25-17.77 47.24-16.72 47.24-16.06L47.24-16.06Q47.24-13.79 47.26-11.82 47.29-9.84 47.33-7.93 47.38-6.03 47.47-4.1 47.55-2.17 47.68 0L47.68 0 43.18 0Q43.31-2.17 43.4-4.1 43.5-6.03 43.57-7.93 43.65-9.84 43.66-11.82 43.67-13.79 43.65-16.06ZM52.51-33.54L60.15-33.54Q62.76-33.54 64.93-32.74 67.11-31.93 68.66-29.99 70.21-28.05 71.07-24.83 71.94-21.61 71.94-16.8L71.94-16.8Q71.94-11.96 71.07-8.73 70.21-5.49 68.64-3.55 67.08-1.61 64.91-0.81 62.74 0 60.1 0L60.1 0 52.51 0Q52.65-2.08 52.74-4.26 52.82-6.45 52.87-8.61 52.92-10.77 52.95-12.84 52.97-14.92 52.97-16.8L52.97-16.8Q52.97-18.68 52.95-20.75 52.92-22.83 52.87-24.98 52.82-27.12 52.74-29.3 52.65-31.47 52.51-33.54L52.51-33.54ZM60.2-30.76L56.95-30.76Q56.78-27.15 56.72-23.55 56.66-19.95 56.66-16.8L56.66-16.8Q56.66-13.65 56.71-10.02 56.76-6.4 56.93-2.81L56.93-2.81 60.2-2.81Q61.25-2.81 62.21-3.04 63.18-3.27 63.99-3.86 64.81-4.44 65.5-5.46 66.18-6.47 66.66-8.02 67.13-9.57 67.39-11.73 67.64-13.89 67.64-16.8L67.64-16.8Q67.64-19.7 67.39-21.86 67.13-24.02 66.66-25.57 66.18-27.12 65.5-28.13 64.81-29.13 63.99-29.71 63.18-30.3 62.21-30.53 61.25-30.76 60.2-30.76L60.2-30.76ZM87.34 0.66L87.34 0.66Q86.24 0.66 85.39 0.55 84.53 0.44 84.31 0.39L84.31 0.39 84.31-3.08Q84.44-3.03 84.72-2.95 85-2.88 85.38-2.81 85.75-2.73 86.19-2.67 86.63-2.61 87.05-2.61L87.05-2.61Q88.46-2.61 89.28-3.5 90.1-4.39 90.76-6.25L90.76-6.25Q91.1-7.25 91.47-8.34 91.83-9.42 92.22-10.62L92.22-10.62Q91.59-12.5 90.84-14.55 90.1-16.6 89.32-18.69 88.54-20.78 87.76-22.84 86.97-24.9 86.23-26.83 85.49-28.76 84.81-30.47 84.14-32.18 83.61-33.54L83.61-33.54 88.15-33.54Q88.61-31.67 89.32-29.32 90.03-26.98 90.82-24.56 91.61-22.14 92.39-19.84 93.18-17.53 93.81-15.7L93.81-15.7Q94.62-18.36 95.4-21.02 96.18-23.68 96.84-26.06 97.5-28.44 98-30.38 98.5-32.32 98.77-33.54L98.77-33.54 103.31-33.54Q102.5-31.15 101.43-27.98 100.35-24.8 99.15-21.11 97.94-17.41 96.67-13.34 95.4-9.28 94.2-5.15L94.2-5.15Q93.35-2.22 91.72-0.78 90.1 0.66 87.34 0.66ZM125.23-16.75L125.23-16.75Q125.23-12.23 124.42-8.95 123.62-5.66 122.19-3.53 120.76-1.39 118.83-0.37 116.9 0.66 114.68 0.66L114.68 0.66Q112.44 0.66 110.51-0.37 108.58-1.39 107.15-3.53 105.72-5.66 104.9-8.95 104.09-12.23 104.09-16.75L104.09-16.75Q104.09-21.24 104.9-24.52 105.72-27.81 107.15-29.96 108.58-32.1 110.51-33.13 112.44-34.16 114.68-34.16L114.68-34.16Q116.9-34.16 118.83-33.13 120.76-32.1 122.19-29.96 123.62-27.81 124.42-24.52 125.23-21.24 125.23-16.75ZM121.03-16.75L121.03-16.75Q121.03-20.51 120.54-23.24 120.05-25.98 119.2-27.75 118.34-29.52 117.18-30.36 116.03-31.2 114.68-31.2L114.68-31.2Q113.32-31.2 112.16-30.36 111-29.52 110.13-27.75 109.26-25.98 108.77-23.24 108.29-20.51 108.29-16.75L108.29-16.75Q108.29-12.96 108.77-10.23 109.26-7.5 110.13-5.74 111-3.98 112.16-3.14 113.32-2.29 114.68-2.29L114.68-2.29Q116.03-2.29 117.18-3.14 118.34-3.98 119.2-5.74 120.05-7.5 120.54-10.23 121.03-12.96 121.03-16.75ZM133.31-17.48L133.31-17.48Q133.33-15.7 133.36-14.07 133.38-12.45 133.43-11.02 133.48-9.59 133.55-8.42 133.63-7.25 133.75-6.4L133.75-6.4Q134.06-4.27 134.97-3.33 135.87-2.39 137.29-2.39L137.29-2.39Q138.09-2.39 138.95-2.81 139.8-3.22 140.6-3.91 141.39-4.59 142.11-5.47 142.83-6.35 143.39-7.28L143.39-7.28Q143.54-12.11 143.54-17.07L143.54-17.07Q143.54-19.34 143.51-21.39 143.49-23.44 143.43-25.42 143.37-27.39 143.28-29.38 143.2-31.37 143.07-33.54L143.07-33.54 147.59-33.54Q147.47-31.37 147.38-29.38 147.3-27.39 147.24-25.42 147.17-23.44 147.15-21.39 147.13-19.34 147.13-17.07L147.13-17.07Q147.13-14.79 147.15-12.66 147.17-10.52 147.24-8.44 147.3-6.35 147.38-4.26 147.47-2.17 147.59 0L147.59 0 143.05 0Q143.1-0.95 143.15-1.89 143.2-2.83 143.24-3.76L143.24-3.76Q142.54-2.88 141.74-2.09 140.95-1.29 140.02-0.7 139.09-0.1 138.03 0.26 136.97 0.61 135.72 0.61L135.72 0.61Q132.82 0.61 131.22-1.7 129.62-4 129.62-8.57L129.62-8.57Q129.62-9.69 129.63-10.97 129.65-12.26 129.67-13.49 129.69-14.72 129.71-15.77 129.72-16.82 129.72-17.48L129.72-17.48Q129.72-19.75 129.69-21.73 129.67-23.71 129.62-25.61 129.57-27.51 129.49-29.44 129.4-31.37 129.28-33.54L129.28-33.54 133.77-33.54Q133.65-31.37 133.55-29.44 133.45-27.51 133.39-25.61 133.33-23.71 133.31-21.73 133.28-19.75 133.31-17.48ZM165.8-34.16L165.8-29.66Q162.58-29.66 160.19-28.76 157.79-27.86 156.67-26.03L156.67-26.03Q156.52-21.29 156.52-16.48L156.52-16.48Q156.52-14.21 156.55-12.16 156.57-10.11 156.62-8.13 156.67-6.15 156.77-4.16 156.86-2.17 156.99 0L156.99 0 152.47 0Q152.59-2.17 152.68-4.16 152.76-6.15 152.82-8.13 152.89-10.11 152.91-12.16 152.93-14.21 152.93-16.48L152.93-16.48Q152.93-18.75 152.91-20.89 152.89-23.02 152.82-25.11 152.76-27.2 152.68-29.28 152.59-31.37 152.47-33.54L152.47-33.54 157.01-33.54Q156.94-32.4 156.88-31.49 156.82-30.59 156.77-29.47L156.77-29.47Q157.55-30.37 158.68-31.23 159.82-32.08 161.06-32.73 162.31-33.37 163.55-33.76 164.8-34.16 165.8-34.16L165.8-34.16ZM193.43-33.62L193.43-29.76Q193.11-30.08 192.59-30.33 192.06-30.59 191.44-30.77 190.82-30.96 190.17-31.04 189.53-31.13 188.99-31.13L188.99-31.13Q187.43-31.13 186.24-30.59 185.06-30.05 184.26-29.04 183.47-28.03 183.07-26.59 182.67-25.15 182.67-23.34L182.67-23.34 182.67-19.31 192.19-19.31 192.19-16.46 182.67-16.46 182.67-15.55Q182.67-11.84 182.75-7.92 182.84-4 183.1 0L183.1 0 178.52 0Q178.73-4.03 178.84-7.96 178.95-11.89 178.95-15.55L178.95-15.55 178.95-23.34Q178.95-25.88 179.59-27.88 180.22-29.88 181.49-31.27 182.76-32.67 184.64-33.41 186.52-34.16 188.99-34.16L188.99-34.16Q189.48-34.16 190.09-34.12 190.7-34.08 191.31-34.02 191.92-33.96 192.48-33.86 193.04-33.76 193.43-33.62L193.43-33.62ZM216.72-16.75L216.72-16.75Q216.72-12.23 215.91-8.95 215.11-5.66 213.68-3.53 212.25-1.39 210.32-0.37 208.4 0.66 206.17 0.66L206.17 0.66Q203.93 0.66 202-0.37 200.07-1.39 198.64-3.53 197.21-5.66 196.4-8.95 195.58-12.23 195.58-16.75L195.58-16.75Q195.58-21.24 196.4-24.52 197.21-27.81 198.64-29.96 200.07-32.1 202-33.13 203.93-34.16 206.17-34.16L206.17-34.16Q208.4-34.16 210.32-33.13 212.25-32.1 213.68-29.96 215.11-27.81 215.91-24.52 216.72-21.24 216.72-16.75ZM212.52-16.75L212.52-16.75Q212.52-20.51 212.03-23.24 211.54-25.98 210.69-27.75 209.84-29.52 208.68-30.36 207.52-31.2 206.17-31.2L206.17-31.2Q204.81-31.2 203.65-30.36 202.49-29.52 201.62-27.75 200.75-25.98 200.27-23.24 199.78-20.51 199.78-16.75L199.78-16.75Q199.78-12.96 200.27-10.23 200.75-7.5 201.62-5.74 202.49-3.98 203.65-3.14 204.81-2.29 206.17-2.29L206.17-2.29Q207.52-2.29 208.68-3.14 209.84-3.98 210.69-5.74 211.54-7.5 212.03-10.23 212.52-12.96 212.52-16.75ZM241.18-16.75L241.18-16.75Q241.18-12.23 240.38-8.95 239.57-5.66 238.14-3.53 236.71-1.39 234.78-0.37 232.86 0.66 230.63 0.66L230.63 0.66Q228.39 0.66 226.46-0.37 224.53-1.39 223.1-3.53 221.67-5.66 220.86-8.95 220.04-12.23 220.04-16.75L220.04-16.75Q220.04-21.24 220.86-24.52 221.67-27.81 223.1-29.96 224.53-32.1 226.46-33.13 228.39-34.16 230.63-34.16L230.63-34.16Q232.86-34.16 234.78-33.13 236.71-32.1 238.14-29.96 239.57-27.81 240.38-24.52 241.18-21.24 241.18-16.75ZM236.98-16.75L236.98-16.75Q236.98-20.51 236.49-23.24 236.01-25.98 235.15-27.75 234.3-29.52 233.14-30.36 231.98-31.2 230.63-31.2L230.63-31.2Q229.27-31.2 228.11-30.36 226.95-29.52 226.08-27.75 225.21-25.98 224.73-23.24 224.24-20.51 224.24-16.75L224.24-16.75Q224.24-12.96 224.73-10.23 225.21-7.5 226.08-5.74 226.95-3.98 228.11-3.14 229.27-2.29 230.63-2.29L230.63-2.29Q231.98-2.29 233.14-3.14 234.3-3.98 235.15-5.74 236.01-7.5 236.49-10.23 236.98-12.96 236.98-16.75ZM245.28-33.54L252.92-33.54Q255.53-33.54 257.71-32.74 259.88-31.93 261.43-29.99 262.98-28.05 263.85-24.83 264.71-21.61 264.71-16.8L264.71-16.8Q264.71-11.96 263.85-8.73 262.98-5.49 261.42-3.55 259.86-1.61 257.68-0.81 255.51 0 252.87 0L252.87 0 245.28 0Q245.43-2.08 245.51-4.26 245.6-6.45 245.65-8.61 245.7-10.77 245.72-12.84 245.74-14.92 245.74-16.8L245.74-16.8Q245.74-18.68 245.72-20.75 245.7-22.83 245.65-24.98 245.6-27.12 245.51-29.3 245.43-31.47 245.28-33.54L245.28-33.54ZM252.97-30.76L249.72-30.76Q249.55-27.15 249.49-23.55 249.43-19.95 249.43-16.8L249.43-16.8Q249.43-13.65 249.48-10.02 249.53-6.4 249.7-2.81L249.7-2.81 252.97-2.81Q254.02-2.81 254.98-3.04 255.95-3.27 256.77-3.86 257.58-4.44 258.27-5.46 258.95-6.47 259.43-8.02 259.9-9.57 260.16-11.73 260.42-13.89 260.42-16.8L260.42-16.8Q260.42-19.7 260.16-21.86 259.9-24.02 259.43-25.57 258.95-27.12 258.27-28.13 257.58-29.13 256.77-29.71 255.95-30.3 254.98-30.53 254.02-30.76 252.97-30.76L252.97-30.76Z" opacity="1" transform="matrix(1,0,0,1,0,0)" fill="#ea3c12" class="slogan-text-1" data-fill-palette-color="secondary" id="text-1"></path></svg></g></svg></g></svg></g></svg></g><g><svg viewBox="0 0 110.86848343851213 133.63283658728005" height="133.63283658728005" width="110.86848343851213"><g><svg xmlns="http://www.w3.org/2000/svg" xmlns:xlink="http://www.w3.org/1999/xlink" version="1.1" x="0" y="0" viewBox="5.356387831241043 1.3222235572460037 39.2878904755484 47.354776442753995" enable-background="new 0 0 50 50" xml:space="preserve" height="133.63283658728005" width="110.86848343851213" class="icon-icon-0" data-fill-palette-color="accent" id="icon-0"><g fill="#ea3c12" data-fill-palette-color="accent"><path fill-rule="evenodd" clip-rule="evenodd" fill="#ea3c12" d="M44.104 11.163C44.883 10.458 44.808 9.75 43.954 9.044 39.606 9.863 12.466 20.643 11.87 22.726 22.578 18.858 33.359 15.03 44.104 11.163" data-fill-palette-color="accent"></path><path fill-rule="evenodd" clip-rule="evenodd" fill="#ea3c12" d="M36.52 2.613C36.036-0.658 32.466 3.134 29.903 4.695 27.261 6.738 25.07 8.226 22.356 10.273 19.79 12.241 9.044 19.751 8.45 22.056z" data-fill-palette-color="accent"></path><path fill-rule="evenodd" clip-rule="evenodd" fill="#ea3c12" d="M18.671 26.926C21.423 25.85 21.052 22.057 26.219 23.99 26.702 24.771 26.219 25.44 25.587 26.219 28.822 24.958 30.832 23.359 33.247 27.522 35.143 26.891 38.973 28.452 39.27 27.448 37.782 26.632 36.22 25.962 33.916 25.962 33.172 25.255 32.393 24.586 31.611 23.879 30.421 23.507 29.195 23.544 27.97 23.99 26.702 23.172 26.034 22.243 23.878 22.243 21.758 22.243 21.087 23.172 19.861 23.99 16.59 23.99 16.293 24.026 13.875 26.219 12.314 26.666 10.716 27.074 9.154 27.522 9.227 27.745 9.265 27.969 9.34 28.153 11.087 27.895 12.835 27.633 14.582 27.374 15.214 24.995 20.048 23.582 18.671 26.926" data-fill-palette-color="accent"></path><path fill-rule="evenodd" clip-rule="evenodd" fill="#ea3c12" d="M5.363 28.861C5.139 37.486 10.642 45.552 16.442 48.677H33.359C33.395 48.564 39.345 43.544 40.793 40.943 42.43 37.929 43.843 33.211 43.843 28.861z" data-fill-palette-color="accent"></path></g></svg></g></svg></g></svg></g><defs></defs></svg><rect width="395.52" height="101.84494948116868" fill="none" stroke="none" visibility="hidden"></rect></g></svg></g></svg>